<svg version="1" xmlns="http://www.w3.org/2000/svg" width="346.667" height="346.667" viewBox="0 0 260.000000 260.000000"><path d="M109.5 17C59 24.9 19.7 65 12.9 115.7c-1.7 12.8-.6 32.5 2.4 44.4 10.8 41.9 41.1 72.2 83.6 83.7 8.7 2.3 11.3 2.5 28.6 2.5s19.9-.2 28.6-2.5c42.5-11.4 72.3-41.2 83.7-83.7 2.3-8.7 2.5-11.3 2.5-28.6s-.2-19.9-2.5-28.6c-11.5-42.5-41.6-72.7-83.7-83.6-7.7-2-12.7-2.5-25.1-2.8-8.5-.2-18.2 0-21.5.5zM146 70.1c11.6 5.4 17 13.4 17.1 25.2.1 10.1-2.6 15-16.3 29.3-12.7 13.4-12.8 13.5-12.8 27v8.4h-16.2l.4-11.8c.5-14.8 1.5-16.8 15.4-31.2 5.7-6 10.8-12 11.4-13.5 1.7-4.6 1.2-10.9-1.2-14.5-6.7-9.9-22.4-10.2-39.5-1L97 91.9V76l4.8-2.3c10.3-5.2 16.7-6.6 29.2-6.3 7.8.1 10.5.6 15 2.7zm-12 112.4V193h-17v-21h17v10.5z"/></svg>